<svg id="Layer_1" data-name="Layer 1" xmlns="http://www.w3.org/2000/svg" xmlns:xlink="http://www.w3.org/1999/xlink" viewBox="0 0 1920 1080"><defs><style>.cls-1{fill:url(#linear-gradient);}.cls-2{fill:url(#linear-gradient-2);}.cls-3{fill:url(#linear-gradient-3);}.cls-4{fill:url(#linear-gradient-4);}.cls-5{fill:url(#linear-gradient-5);}.cls-6{fill:url(#linear-gradient-6);}.cls-7{fill:url(#linear-gradient-7);}.cls-8{fill:url(#linear-gradient-9);}.cls-9{fill:url(#linear-gradient-10);}.cls-10{fill:url(#linear-gradient-11);}.cls-11{fill:url(#linear-gradient-13);}.cls-12{fill:url(#linear-gradient-14);}.cls-13{fill:url(#linear-gradient-15);}.cls-14{fill:url(#linear-gradient-16);}.cls-15{fill:url(#linear-gradient-17);}.cls-16{fill:url(#linear-gradient-18);}.cls-17{fill:url(#linear-gradient-19);}.cls-18{fill:url(#linear-gradient-20);}.cls-19{fill:url(#linear-gradient-21);}.cls-20{fill:url(#linear-gradient-22);}.cls-21{fill:url(#linear-gradient-23);}.cls-22{fill:url(#linear-gradient-24);}.cls-23{fill:url(#linear-gradient-25);}.cls-24{fill:url(#linear-gradient-26);}.cls-25{fill:url(#linear-gradient-27);}.cls-26{fill:url(#linear-gradient-28);}.cls-27{fill:url(#linear-gradient-29);}.cls-28{fill:url(#linear-gradient-30);}.cls-29{fill:url(#linear-gradient-31);}.cls-30{fill:url(#linear-gradient-32);}.cls-31{fill:url(#linear-gradient-33);}.cls-32{fill:url(#linear-gradient-34);}.cls-33{fill:url(#linear-gradient-35);}.cls-34{fill:url(#linear-gradient-36);}.cls-35{fill:url(#linear-gradient-37);}.cls-36{fill:url(#linear-gradient-38);}.cls-37{fill:url(#linear-gradient-39);}.cls-38{fill:url(#linear-gradient-40);}.cls-39{fill:url(#linear-gradient-41);}</style><linearGradient id="linear-gradient" x1="757.01" y1="331.22" x2="1270.27" y2="844.48" gradientUnits="userSpaceOnUse"><stop offset="0" stop-color="#787883"/><stop offset="0.32" stop-color="#414042"/><stop offset="0.52" stop-color="#72727d"/><stop offset="0.66" stop-color="#55555e"/><stop offset="0.85" stop-color="#313137"/><stop offset="1" stop-color="#27272c"/></linearGradient><linearGradient id="linear-gradient-2" x1="869.17" y1="219.06" x2="1382.43" y2="732.33" xlink:href="#linear-gradient"/><linearGradient id="linear-gradient-3" x1="831.88" y1="256.35" x2="1345.14" y2="769.62" xlink:href="#linear-gradient"/><linearGradient id="linear-gradient-4" x1="721.69" y1="366.54" x2="1234.95" y2="879.81" xlink:href="#linear-gradient"/><linearGradient id="linear-gradient-5" x1="483.76" y1="740.5" x2="1665.96" y2="740.5" xlink:href="#linear-gradient"/><linearGradient id="linear-gradient-6" x1="483.76" y1="740.5" x2="1665.96" y2="740.5" xlink:href="#linear-gradient"/><linearGradient id="linear-gradient-7" x1="483.76" y1="740.5" x2="1665.96" y2="740.5" xlink:href="#linear-gradient"/><linearGradient id="linear-gradient-9" x1="483.76" y1="740.5" x2="1665.96" y2="740.5" xlink:href="#linear-gradient"/><linearGradient id="linear-gradient-10" x1="483.76" y1="740.5" x2="1665.96" y2="740.5" xlink:href="#linear-gradient"/><linearGradient id="linear-gradient-11" x1="483.76" y1="740.5" x2="1665.96" y2="740.5" xlink:href="#linear-gradient"/><linearGradient id="linear-gradient-13" x1="483.76" y1="740.5" x2="1665.97" y2="740.5" xlink:href="#linear-gradient"/><linearGradient id="linear-gradient-14" x1="483.76" y1="805.97" x2="1665.93" y2="805.97" xlink:href="#linear-gradient"/><linearGradient id="linear-gradient-15" x1="483.76" y1="805.97" x2="1665.96" y2="805.97" xlink:href="#linear-gradient"/><linearGradient id="linear-gradient-16" x1="483.76" y1="806.02" x2="1665.96" y2="806.02" xlink:href="#linear-gradient"/><linearGradient id="linear-gradient-17" x1="483.75" y1="805.97" x2="1666.03" y2="805.97" xlink:href="#linear-gradient"/><linearGradient id="linear-gradient-18" x1="483.76" y1="805.97" x2="1665.97" y2="805.97" xlink:href="#linear-gradient"/><linearGradient id="linear-gradient-19" x1="483.76" y1="805.97" x2="1665.96" y2="805.97" xlink:href="#linear-gradient"/><linearGradient id="linear-gradient-20" x1="483.76" y1="805.97" x2="1665.97" y2="805.97" xlink:href="#linear-gradient"/><linearGradient id="linear-gradient-21" x1="483.76" y1="805.92" x2="1665.96" y2="805.92" xlink:href="#linear-gradient"/><linearGradient id="linear-gradient-22" x1="483.76" y1="805.97" x2="1665.97" y2="805.97" xlink:href="#linear-gradient"/><linearGradient id="linear-gradient-23" x1="483.77" y1="805.97" x2="1665.94" y2="805.97" xlink:href="#linear-gradient"/><linearGradient id="linear-gradient-24" x1="483.76" y1="805.97" x2="1665.97" y2="805.97" xlink:href="#linear-gradient"/><linearGradient id="linear-gradient-25" x1="483.76" y1="805.97" x2="1665.97" y2="805.97" xlink:href="#linear-gradient"/><linearGradient id="linear-gradient-26" x1="483.76" y1="805.97" x2="1665.97" y2="805.97" xlink:href="#linear-gradient"/><linearGradient id="linear-gradient-27" x1="483.76" y1="805.97" x2="1665.97" y2="805.97" xlink:href="#linear-gradient"/><linearGradient id="linear-gradient-28" x1="483.76" y1="805.92" x2="1665.96" y2="805.92" xlink:href="#linear-gradient"/><linearGradient id="linear-gradient-29" x1="483.76" y1="806" x2="1665.96" y2="806" xlink:href="#linear-gradient"/><linearGradient id="linear-gradient-30" x1="483.76" y1="805.97" x2="1665.97" y2="805.97" xlink:href="#linear-gradient"/><linearGradient id="linear-gradient-31" x1="483.76" y1="805.97" x2="1665.96" y2="805.97" xlink:href="#linear-gradient"/><linearGradient id="linear-gradient-32" x1="483.78" y1="805.97" x2="1665.95" y2="805.97" xlink:href="#linear-gradient"/><linearGradient id="linear-gradient-33" x1="483.76" y1="805.97" x2="1665.97" y2="805.97" xlink:href="#linear-gradient"/><linearGradient id="linear-gradient-34" x1="483.76" y1="805.97" x2="1665.97" y2="805.97" xlink:href="#linear-gradient"/><linearGradient id="linear-gradient-35" x1="483.76" y1="805.97" x2="1665.96" y2="805.97" xlink:href="#linear-gradient"/><linearGradient id="linear-gradient-36" x1="483.76" y1="806.02" x2="1665.96" y2="806.02" xlink:href="#linear-gradient"/><linearGradient id="linear-gradient-37" x1="483.76" y1="805.92" x2="1665.96" y2="805.92" xlink:href="#linear-gradient"/><linearGradient id="linear-gradient-38" x1="483.76" y1="805.97" x2="1665.97" y2="805.97" xlink:href="#linear-gradient"/><linearGradient id="linear-gradient-39" x1="483.78" y1="805.97" x2="1665.95" y2="805.97" xlink:href="#linear-gradient"/><linearGradient id="linear-gradient-40" x1="483.76" y1="805.97" x2="1665.97" y2="805.97" xlink:href="#linear-gradient"/><linearGradient id="linear-gradient-41" x1="483.76" y1="805.97" x2="1665.97" y2="805.97" xlink:href="#linear-gradient"/></defs><title>vector file</title><polygon class="cls-1" points="787.93 323.9 950.45 417.45 950.45 631.43 907.34 588.75 879.77 459.45 788.27 408.23 787.93 323.9"/><polygon class="cls-2" points="798.17 308.88 958.64 402.43 1119.79 308.88 1046.73 266.54 958.98 318.1 870.9 267.57 798.17 308.88"/><polygon class="cls-3" points="1132.07 320.75 1131.75 409.44 1040.02 460.79 1012.53 589.78 983.38 618.64 970.81 631.09 970.81 625.26 983.38 612.81 1008.74 587.72 1036.37 458.1 1037.18 457.64 1127.63 407.02 1127.93 323.14 1132.07 320.75"/><polygon class="cls-4" points="983.38 612.81 983.38 618.64 970.81 631.09 970.81 625.26 983.38 612.81"/><path class="cls-5" d="M596.42,766.54V724.87H580.8a10.07,10.07,0,0,1-7.41-3,10.23,10.23,0,0,1-3-7.41h62.51a9.92,9.92,0,0,1-3.1,7.41,10.12,10.12,0,0,1-7.32,3H606.84v41.67Z"/><path class="cls-6" d="M670.39,724.87a10.07,10.07,0,0,1-7.41-3,10.27,10.27,0,0,1-3-7.41h62.51a10,10,0,0,1-3.09,7.41,10.16,10.16,0,0,1-7.33,3Zm0,20.84a10.11,10.11,0,0,1-7.41-3,10.29,10.29,0,0,1-3-7.41h62.51a10,10,0,0,1-3.09,7.41,10.2,10.2,0,0,1-7.33,3Zm0,20.83a10.07,10.07,0,0,1-7.41-3,10.26,10.26,0,0,1-3-7.4h62.51a9.91,9.91,0,0,1-3.09,7.4,10.16,10.16,0,0,1-7.33,3Z"/><path class="cls-7" d="M749.56,766.54V735.29h46.88a5.2,5.2,0,0,0,3.67-1.46,5.1,5.1,0,0,0,1.54-3.75v-5.21H749.56V714.45h62.51v20.84A10,10,0,0,1,809,742.7a10.2,10.2,0,0,1-7.33,3H760v20.83Z"/><path class="cls-7" d="M849.57,766.54V724.87l-10.41-10.42h15.62l36.46,36.47V714.45h10.42v52.09H891.24L860,735.29v31.25Z"/><path class="cls-8" d="M939.16,724.87a10,10,0,0,1-7.4-3,10.23,10.23,0,0,1-3-7.41h62.5a10,10,0,0,1-3.09,7.41,10.13,10.13,0,0,1-7.33,3Zm-10.41,41.67V735.29h10.41v20.84h41.67V735.29h10.42v31.25Z"/><path class="cls-9" d="M1018.34,766.54V714.45h10.42v41.68h52.08a9.91,9.91,0,0,1-3.09,7.4,10.12,10.12,0,0,1-7.32,3Z"/><path class="cls-10" d="M1118.35,724.87a10.07,10.07,0,0,1-7.41-3,10.23,10.23,0,0,1-3-7.41h62.51a10,10,0,0,1-3.1,7.41,10.12,10.12,0,0,1-7.32,3Zm-10.42,41.67V735.29h10.42v20.84H1160V735.29h10.42v31.25Z"/><path class="cls-10" d="M1197.52,724.87V714.45H1260a10,10,0,0,1-3.09,7.41,10.16,10.16,0,0,1-7.33,3Zm10.42,41.67a10.07,10.07,0,0,1-7.41-3,10.26,10.26,0,0,1-3-7.4V735.29h10.42v15.63a5,5,0,0,0,5.21,5.21h36.46V745.71h-20.84a10.1,10.1,0,0,1-7.4-3,10.25,10.25,0,0,1-3-7.41H1260v31.25Z"/><path class="cls-11" d="M1313.16,766.54V750.92l-26.05-26V714.45h10.42v5.21l20.84,20.84,20.83-20.84v-5.21h10.42v10.42l-26,26v15.62Z"/><path class="cls-12" d="M570.38,813.21V798.74h1.08v14.47Z"/><path class="cls-13" d="M600.36,813.21l-10.2-12.86v12.86h-1V798.74h1l10,12.59V798.74h1v14.47Z"/><path class="cls-14" d="M624.77,813.31h-.95l-6.37-14.57h1.2l5.66,13.31L630,798.74h1.13Z"/><path class="cls-15" d="M647.56,813.21V798.74h1.08v14.47Z"/><path class="cls-16" d="M673,813.46c-4.57,0-7.28-3.37-7.28-7.45v0a7.22,7.22,0,0,1,7.16-7.48,7.59,7.59,0,0,1,5.29,1.9l-.7.81a6.52,6.52,0,0,0-4.66-1.74c-3.51,0-6,3-6,6.47v0c0,3.74,2.33,6.54,6.2,6.54a7.42,7.42,0,0,0,4.61-1.66V806.7h-4.84v-1h5.88v5.59A8.77,8.77,0,0,1,673,813.46Z"/><path class="cls-17" d="M702.36,813.46a7.22,7.22,0,0,1-7.25-7.45v0a7.28,7.28,0,1,1,14.55,0s0,0,0,0A7.28,7.28,0,0,1,702.36,813.46Zm6.19-7.49a6.27,6.27,0,0,0-6.19-6.51,6.19,6.19,0,0,0-6.14,6.47v0a6.27,6.27,0,0,0,6.18,6.52,6.21,6.21,0,0,0,6.15-6.48Z"/><path class="cls-18" d="M737,813.21l-4.61-6h-4.74v6h-1.07V798.74h6.07c3.13,0,5.17,1.69,5.17,4.11v0c0,2.42-1.79,3.81-4.23,4.14l4.77,6.18Zm-.25-10.32c0-1.94-1.53-3.16-4.16-3.16h-4.94v6.51h4.88c2.42,0,4.22-1.22,4.22-3.31Z"/><path class="cls-19" d="M766.82,813.21,765,809.16h-8.54l-1.84,4.05h-1.12l6.74-14.58h1L768,813.21Zm-6.1-13.4-3.83,8.37h7.63Z"/><path class="cls-20" d="M787.5,799.73v13.48h-1.07V799.73h-5v-1h11.17v1Z"/><path class="cls-21" d="M809.19,813.21V798.74h1.07v14.47Z"/><path class="cls-22" d="M834.55,813.46a7.22,7.22,0,0,1-7.26-7.45v0a7.28,7.28,0,0,1,7.3-7.48,7.21,7.21,0,0,1,7.26,7.44s0,0,0,0A7.29,7.29,0,0,1,834.55,813.46Zm6.18-7.49a6.26,6.26,0,0,0-6.18-6.51,6.19,6.19,0,0,0-6.14,6.47v0a6.27,6.27,0,0,0,6.18,6.52,6.2,6.2,0,0,0,6.14-6.48Z"/><path class="cls-23" d="M870,813.21l-10.19-12.86v12.86h-1V798.74h1l10,12.59V798.74h1v14.47Z"/><path class="cls-24" d="M912.62,813.42a8.26,8.26,0,0,1-5.83-2.32l.7-.81a7,7,0,0,0,5.19,2.15c2.18,0,3.66-1.22,3.66-2.87v0c0-1.53-.8-2.42-4.09-3.08-3.47-.7-4.88-1.88-4.88-4.07v0c0-2.15,2-3.8,4.65-3.8a7.23,7.23,0,0,1,5,1.76l-.69.84A6.26,6.26,0,0,0,912,799.5c-2.13,0-3.53,1.22-3.53,2.73v0c0,1.53.78,2.46,4.21,3.17s4.76,1.88,4.76,4v0C917.42,811.8,915.41,813.42,912.62,813.42Z"/><path class="cls-25" d="M939.16,807.81h-3.9v5.4h-1.08V798.74h5.25c3.19,0,5.38,1.63,5.38,4.42v0C944.81,806.24,942.18,807.81,939.16,807.81Zm4.57-4.59c0-2.29-1.78-3.49-4.38-3.49h-4.09v7.09h4c2.68,0,4.5-1.41,4.5-3.56Z"/><path class="cls-26" d="M971.87,813.21,970,809.16h-8.54l-1.84,4.05h-1.12l6.74-14.58h1l6.75,14.58Zm-6.1-13.4-3.83,8.37h7.63Z"/><path class="cls-27" d="M1001.82,813.31H1001l-4.24-12.57-4.24,12.57h-.87l-5.25-14.57h1.2l4.55,12.88,4.24-12.93h.83l4.24,12.93,4.54-12.88h1.12Z"/><path class="cls-28" d="M1034.7,813.21l-10.19-12.86v12.86h-1V798.74h1l10,12.59V798.74h1v14.47Z"/><path class="cls-29" d="M1057.94,813.42a8.22,8.22,0,0,1-5.83-2.32l.7-.81a7,7,0,0,0,5.19,2.15c2.17,0,3.66-1.22,3.66-2.87v0c0-1.53-.81-2.42-4.1-3.08-3.47-.7-4.88-1.88-4.88-4.07v0c0-2.15,2-3.8,4.66-3.8a7.21,7.21,0,0,1,5,1.76l-.68.84a6.28,6.28,0,0,0-4.32-1.63c-2.13,0-3.54,1.22-3.54,2.73v0c0,1.53.79,2.46,4.22,3.17s4.75,1.88,4.75,4v0C1062.73,811.8,1060.73,813.42,1057.94,813.42Z"/><path class="cls-30" d="M1099.07,813.21V798.74h1.07v14.47Z"/><path class="cls-31" d="M1129,813.21l-10.19-12.86v12.86h-1V798.74h1l10,12.59V798.74h1v14.47Z"/><path class="cls-32" d="M1158.6,813.21l-10.19-12.86v12.86h-1V798.74h1l10,12.59V798.74h1v14.47Z"/><path class="cls-33" d="M1183.55,813.46a7.22,7.22,0,0,1-7.26-7.45v0a7.28,7.28,0,0,1,7.3-7.48,7.21,7.21,0,0,1,7.26,7.44s0,0,0,0A7.29,7.29,0,0,1,1183.55,813.46Zm6.18-7.49a6.26,6.26,0,0,0-6.18-6.51,6.19,6.19,0,0,0-6.14,6.47v0a6.27,6.27,0,0,0,6.18,6.52,6.2,6.2,0,0,0,6.14-6.48Z"/><path class="cls-34" d="M1213,813.31h-1l-6.36-14.57h1.2l5.66,13.31,5.69-13.31h1.13Z"/><path class="cls-35" d="M1245.67,813.21l-1.84-4.05h-8.54l-1.84,4.05h-1.12l6.74-14.58h1l6.74,14.58Zm-6.1-13.4-3.83,8.37h7.63Z"/><path class="cls-36" d="M1266.36,799.73v13.48h-1.08V799.73h-5v-1h11.16v1Z"/><path class="cls-37" d="M1288,813.21V798.74h1.07v14.47Z"/><path class="cls-38" d="M1313.4,813.46a7.22,7.22,0,0,1-7.25-7.45v0a7.28,7.28,0,1,1,14.55,0s0,0,0,0A7.28,7.28,0,0,1,1313.4,813.46Zm6.19-7.49a6.27,6.27,0,0,0-6.19-6.51,6.19,6.19,0,0,0-6.14,6.47v0a6.27,6.27,0,0,0,6.18,6.52,6.21,6.21,0,0,0,6.15-6.48Z"/><path class="cls-39" d="M1348.81,813.21l-10.19-12.86v12.86h-1V798.74h1l10,12.59V798.74h1v14.47Z"/></svg>